<svg width="1em" height="1em" viewBox="0 0 24 24" xmlns="http://www.w3.org/2000/svg">
  <title>Cohere</title>
  <path d="M12 2C6.477 2 2 6.477 2 12s4.477 10 10 10c2.1 0 4.043-.648 5.65-1.756a1.39 1.39 0 0 0 .573-1.122 1.39 1.39 0 0 0-1.39-1.39h-2.45c-2.605 0-4.716-2.111-4.716-4.716s2.111-4.716 4.716-4.716h3.35A1.267 1.267 0 0 0 19 7.033 1.267 1.267 0 0 0 17.733 5.8h-3.35c-1.19 0-2.316.263-3.33.732A8 8 0 0 1 12 2z" fill="#39594D"/>
  <path d="M14.383 8.3c-2.605 0-4.716 2.111-4.716 4.716s2.111 4.716 4.716 4.716h2.45a1.39 1.39 0 0 1 1.39 1.39 1.39 1.39 0 0 1-.573 1.122C18.8 21.7 20.468 19.9 21.4 17.7c.4-.9.6-1.9.6-2.9v-1.8c0-2.6-2.1-4.7-4.7-4.7h-2.917z" fill="#D18EE2"/>
  <path d="M14.383 8.3h3.35A1.267 1.267 0 0 0 19 7.033 1.267 1.267 0 0 0 17.733 5.8h-3.35a7.94 7.94 0 0 0-3.33.732A7.663 7.663 0 0 1 14.383 8.3z" fill="#FF7759"/>
</svg>
