<svg width="58" height="33" viewBox="0 0 58 33" fill="none" xmlns="http://www.w3.org/2000/svg">
<path d="M50.9726 19.2217H36.2544C35.6732 19.2217 35.1864 19.0197 34.7939 18.6157C34.4001 18.2131 34.2031 17.7136 34.2031 17.1174C34.2031 16.5212 34.4001 16.0211 34.7939 15.617C35.1864 15.2144 35.6732 15.0131 36.2544 15.0131H50.9726L47.1264 11.0675C46.7161 10.6466 46.511 10.1465 46.511 9.56708C46.511 8.98909 46.7161 8.48966 47.1264 8.0688C47.5367 7.64793 48.0153 7.4375 48.5623 7.4375C49.1093 7.4375 49.588 7.64793 49.9982 8.0688L57.383 15.6444C57.7932 16.0653 57.9983 16.5563 57.9983 17.1174C57.9983 17.6786 57.7932 18.1696 57.383 18.5904L49.9982 26.166C49.588 26.5869 49.1093 26.7882 48.5623 26.77C48.0153 26.7531 47.5367 26.5343 47.1264 26.1134C46.7161 25.6926 46.511 25.2016 46.511 24.6404C46.511 24.0792 46.7161 23.5882 47.1264 23.1674L50.9726 19.2217Z" fill="#56565A"/>
<path d="M20.8213 4.08984H37.4775C39.7678 4.08988 41.6416 5.93032 41.6416 8.17969V12.0127H36.2549C34.9801 12.0127 33.7826 12.4582 32.832 13.3408L32.6455 13.5225C31.733 14.4586 31.2641 15.6308 31.209 16.8691L31.2031 17.1172L31.209 17.3662C31.264 18.6012 31.7319 19.7703 32.6426 20.7051L32.6416 20.7061C33.6189 21.7121 34.8919 22.2217 36.2549 22.2217H41.6416V28.6289C41.6414 30.8781 39.7677 32.7187 37.4775 32.7188H4.16406C1.87393 32.7187 0.0001794 30.8781 0 28.6289L0.0205078 4.08984C0.0205078 1.84048 1.87382 5.44101e-05 4.16406 0H16.6562L20.8213 4.08984Z" fill="#56565A"/>
</svg>
