<svg width="44" height="44" viewBox="0 0 44 44" fill="none" xmlns="http://www.w3.org/2000/svg">
<g clip-path="url(#clip0_1539_12926)">
<path d="M38.4987 9.16667C36.4637 8.525 34.227 8.25 32.082 8.25C28.507 8.25 24.657 8.98333 21.9987 11C19.3404 8.98333 15.4904 8.25 11.9154 8.25C8.34036 8.25 4.49036 8.98333 1.83203 11V37.8583C1.83203 38.3167 2.29036 38.775 2.7487 38.775C2.93203 38.775 3.0237 38.6833 3.20703 38.6833C5.68203 37.4917 9.25703 36.6667 11.9154 36.6667C15.4904 36.6667 19.3404 37.4 21.9987 39.4167C24.4737 37.8583 28.9654 36.6667 32.082 36.6667C35.107 36.6667 38.2237 37.2167 40.7904 38.5917C40.9737 38.6833 41.0654 38.6833 41.2487 38.6833C41.707 38.6833 42.1654 38.225 42.1654 37.7667V11C41.0654 10.175 39.8737 9.625 38.4987 9.16667ZM38.4987 33.9167C36.482 33.275 34.282 33 32.082 33C28.9654 33 24.4737 34.1917 21.9987 35.75V14.6667C24.4737 13.1083 28.9654 11.9167 32.082 11.9167C34.282 11.9167 36.482 12.1917 38.4987 12.8333V33.9167Z" fill="currentColor"/>
<path d="M32.082 19.25C33.6954 19.25 35.2537 19.415 36.6654 19.7267V16.94C35.217 16.665 33.6587 16.5 32.082 16.5C28.9654 16.5 26.142 17.0317 23.832 18.0217V21.065C25.9037 19.8917 28.782 19.25 32.082 19.25Z" fill="currentColor"/>
<path d="M23.832 22.8967V25.94C25.9037 24.7667 28.782 24.125 32.082 24.125C33.6954 24.125 35.2537 24.29 36.6654 24.6017V21.815C35.217 21.54 33.6587 21.375 32.082 21.375C28.9654 21.375 26.142 21.925 23.832 22.8967Z" fill="currentColor"/>
<path d="M32.082 26.2734C28.9654 26.2734 26.142 26.8051 23.832 27.7951V30.8384C25.9037 29.6651 28.782 29.0234 32.082 29.0234C33.6954 29.0234 35.2537 29.1884 36.6654 29.5001V26.7134C35.217 26.4201 33.6587 26.2734 32.082 26.2734Z" fill="currentColor"/>
</g>
<defs>
<clipPath id="clip0_1539_12926">
<rect width="44" height="44" fill="white"/>
</clipPath>
</defs>
</svg>
