<svg width="700" height="600" viewBox="0 0 700 600" fill="none" xmlns="http://www.w3.org/2000/svg">
	<path
		d="M699.998 300.2C690.798 315.8 681.548 331.2 672.498 346.8C664.998 359.55 657.898 372.45 650.498 385.2C645.298 394.15 639.898 402.9 634.648 411.8L614.948 445.2C604.298 463.55 593.748 482 583.048 500.3C574.198 515.45 565.148 530.55 556.348 545.7C546.462 562.555 536.712 579.489 527.098 596.5C525.498 599.3 523.748 599.95 520.798 599.95C496.598 599.85 472.398 599.9 448.148 599.9C358.798 599.9 269.398 599.85 180.048 600C175.648 600 173.448 598.5 171.348 594.9C163.198 580.6 154.698 566.5 146.348 552.3L131.348 526.3C123.298 512.3 115.198 498.4 107.048 484.45L88.1977 452.15C83.6977 444.45 79.2977 436.65 74.7477 429C66.1477 414.4 57.3977 399.95 48.8977 385.35C41.3977 372.4 34.1477 359.35 26.6977 346.4C21.5977 337.6 16.2477 328.95 11.1477 320.2C7.64773 314.2 4.29773 308.2 0.697726 302.2C-0.402274 300.45 -0.00227631 299.05 0.897724 297.55L15.6977 271.95L29.5477 248.55L45.6977 221.05C51.8477 210.55 58.1477 200.15 64.1977 189.65C70.3477 179.15 76.3477 168.65 82.4477 158.1C89.6977 145.6 96.9477 133.1 104.298 120.6L123.548 88L143.048 54.5C152.748 37.75 162.548 21 172.048 4.1C173.648 1.15 175.498 0 178.898 0C212.648 0.1 246.398 0.100005 280.148 0.100005H521.548C524.048 -0.149995 525.548 0.799997 526.748 3C531.248 11.1 535.898 19.1 540.548 27.05C544.748 34.25 549.048 41.35 553.298 48.55C559.648 59.25 566.048 69.95 572.298 80.7C579.248 92.5 586.098 104.35 592.948 116.2C599.498 127.55 605.948 138.9 612.598 150.2C618.798 160.8 625.098 171.4 631.398 182L651.448 216.25L677.448 261.5C681.348 268.3 685.448 275 689.448 281.8L699.948 300.25H699.998V300.2ZM173.848 299.55V430.7C173.848 436.85 174.348 442.9 176.498 448.9C181.348 462.75 190.848 471.9 204.098 477.7C210.542 480.13 217.419 481.202 224.298 480.85H474.548C483.848 480.85 492.748 479.7 501.048 474.9C508.217 471.092 514.259 465.465 518.568 458.585C522.877 451.705 525.301 443.813 525.598 435.7C525.748 433.4 525.698 431.05 525.698 428.75V221.1V193.75C525.698 191.85 525.298 190.25 523.848 188.85C519.848 185 516.048 180.85 512.048 177.05C502.548 167.75 492.898 158.65 483.348 149.35C478.948 145.05 474.648 140.6 470.248 136.25C465.748 131.75 461.148 127.45 456.748 122.85C455.677 121.563 454.33 120.534 452.806 119.842C451.282 119.149 449.621 118.81 447.948 118.85C373.598 118.95 299.198 118.95 224.848 118.95C214.348 118.95 204.448 121.05 195.598 126.85C188.445 131.379 182.648 137.756 178.819 145.307C174.991 152.858 173.273 161.303 173.848 169.75V299.55Z"
		fill="#2378BC" />
	<path
		d="M173.854 299.498V169.798C173.27 161.344 174.983 152.888 178.812 145.327C182.641 137.766 188.443 131.381 195.604 126.848C204.454 121.098 214.354 118.998 224.854 118.998C299.204 118.998 373.604 118.998 447.954 118.898C451.854 118.898 454.304 120.348 456.754 122.898C461.154 127.498 465.754 131.848 470.254 136.298C474.654 140.648 478.954 145.098 483.354 149.398C492.854 158.698 502.504 167.798 512.054 177.098C516.054 180.948 519.804 185.048 523.804 188.898C525.304 190.298 525.704 191.898 525.704 193.798V428.748C525.704 431.048 525.704 433.398 525.604 435.748C525.318 443.87 522.892 451.772 518.573 458.655C514.253 465.538 508.193 471.159 501.004 474.948C492.881 479.267 483.741 481.306 474.554 480.848H224.304C217.425 481.204 210.548 480.131 204.104 477.698C197.69 475.186 191.9 471.309 187.134 466.336C182.368 461.363 178.741 455.413 176.504 448.898C174.601 443.025 173.705 436.871 173.854 430.698V299.548V299.498ZM441.354 144.698H226.404C223.904 144.698 221.404 144.548 218.904 144.948C215.74 145.287 212.69 146.324 209.975 147.984C207.26 149.644 204.947 151.886 203.204 154.548C200.699 159.003 199.584 164.105 200.004 169.198V430.698C200.004 432.798 199.954 434.998 200.204 437.148C200.663 441.319 202.428 445.238 205.248 448.345C208.068 451.452 211.797 453.588 215.904 454.448C219.554 455.148 223.304 455.398 227.054 455.398C307.704 455.448 388.304 455.448 468.904 455.398C472.954 455.398 477.004 455.048 481.054 454.748C488.954 454.148 494.104 449.748 497.604 442.948C499.704 438.948 499.604 434.648 499.604 430.298V279.198V209.198C499.604 207.398 499.354 205.598 499.154 203.348H441.354V144.698Z"
		fill="#FAFDFE" />
	<path
		d="M441.35 144.703V203.403H499.2C499.35 205.653 499.6 207.403 499.6 209.203V430.353C499.6 434.653 499.7 439.003 497.6 443.003C494.1 449.803 489 454.203 481.1 454.803C477 455.053 473 455.453 468.95 455.453H227.05C223.35 455.453 219.55 455.203 215.9 454.503C211.783 453.647 208.043 451.506 205.222 448.387C202.4 445.269 200.642 441.335 200.2 437.153C200 435.053 200 432.853 200 430.703V169.203C200 164.103 200.3 159.203 203.25 154.603C204.999 151.946 207.312 149.707 210.027 148.048C212.741 146.388 215.788 145.348 218.95 145.003C221.45 144.603 223.95 144.753 226.45 144.753L441.35 144.703ZM271.35 370.953C271.8 376.953 272 382.953 272.75 388.953C273.55 395.153 275.1 401.203 278.1 406.953C279.898 410.647 282.51 413.885 285.741 416.422C288.971 418.96 292.736 420.731 296.75 421.603C302.1 422.803 307.5 422.853 313 422.253C318.982 421.887 324.724 419.766 329.508 416.156C334.292 412.545 337.907 407.606 339.9 401.953C342.4 395.603 343.65 388.953 344.4 382.253C346.25 366.253 345.3 350.603 339.9 335.253C338.735 331.97 336.897 328.966 334.503 326.434C332.11 323.903 329.213 321.9 326 320.553C316.967 316.525 306.765 315.973 297.35 319.003C285.8 322.503 279.35 330.703 275.7 341.303C272.681 350.892 271.212 360.901 271.35 370.953ZM428.5 229.003C427.85 223.053 427.05 217.103 426.5 211.153C425.982 202.491 422.843 194.191 417.5 187.353C415.007 184.198 411.732 181.751 408 180.253C402.063 177.828 395.647 176.801 389.25 177.253C384.191 177.373 379.229 178.663 374.753 181.023C370.276 183.382 366.407 186.747 363.45 190.853C358.656 198.098 355.862 206.481 355.35 215.153C353.75 230.053 353.7 245.003 357.85 259.653C359.65 266.053 362.35 271.753 367.75 275.853C377.75 283.603 389.35 284.053 401.05 281.353C412.95 278.653 419.9 270.353 423.65 259.103C426.658 249.361 428.29 239.197 428.5 229.003ZM422.6 420.753C424.526 417.795 425.374 414.263 425 410.753C424.75 406.753 423.45 405.453 419.5 405.353C416.7 405.253 413.85 405.353 411.05 405.303C409.05 405.253 407.1 405.003 404.55 404.853V319.203C400.95 318.853 397.85 318.303 394.75 318.253C390.377 318.038 386.055 319.268 382.45 321.753C378.2 324.803 373.6 327.403 369.2 330.253C367.2 331.503 365.25 332.753 363.5 334.203C362.6 334.903 361.75 336.153 361.7 337.203C361.519 340.117 361.502 343.038 361.65 345.953C361.65 347.953 363 348.653 364.85 348.403C366.24 348.223 367.591 347.818 368.85 347.203C372.5 345.203 376.05 342.953 379.65 340.903C380.8 340.203 382.15 339.903 383.45 339.403C384.4 346.403 384.05 401.553 382.95 405.353H378.55C374.5 405.353 370.45 405.253 366.35 405.353C363 405.503 361.85 406.603 361.65 409.853C361.55 411.553 361.65 413.253 361.65 414.953C361.65 419.353 363 421.203 368.05 421.153C384.75 420.903 401.5 421.053 418.2 421.053C419.7 421.053 421.25 420.903 422.6 420.803V420.753ZM322 265.253V179.003C317 179.153 312.7 177.653 308.15 178.603C306.15 179.003 304 179.203 302.4 180.203C295.55 184.403 288.8 188.803 282.2 193.353C280.938 194.211 280.017 195.485 279.6 196.953C278.492 200.987 278.882 205.285 280.7 209.053C282.55 208.453 284.35 208.053 285.95 207.253C289.95 205.203 293.8 202.903 297.75 200.753C298.75 200.253 299.9 200.003 301.3 199.503V261.753C301.25 264.853 300.85 265.253 297.8 265.353C294.4 265.453 290.95 265.353 287.5 265.353C279.9 265.353 279 266.253 279.4 274.003C279.4 274.453 279.4 274.903 279.5 275.403C280.1 280.653 280.55 281.103 285.8 281.103H337.8C339.65 281.103 340.95 280.253 341.15 278.503C341.602 275.929 341.803 273.316 341.75 270.703C341.5 266.203 340.6 265.453 336 265.403H322V265.253Z"
		fill="#2478BD" />
	<path
		d="M271.3 370.953C271.5 360.853 272.3 350.853 275.65 341.303C279.35 330.703 285.75 322.453 297.3 319.003C307.15 316.003 316.8 316.503 325.95 320.553C332.35 323.453 337.45 328.203 339.9 335.253C345.25 350.603 346.2 366.253 344.4 382.253C343.65 389.003 342.4 395.653 339.85 401.953C337.86 407.598 334.253 412.533 329.479 416.143C324.705 419.752 318.974 421.878 313 422.253C307.568 422.945 302.059 422.726 296.7 421.603C292.691 420.716 288.935 418.932 285.714 416.387C282.493 413.841 279.89 410.599 278.1 406.903C275.217 401.283 273.386 395.183 272.7 388.903C271.95 382.953 271.7 376.903 271.25 370.903L271.3 370.953ZM324.3 369.203C323.6 361.903 323.1 354.353 321.95 346.903C321.473 343.554 320.204 340.366 318.25 337.603C314.3 332.353 302.45 331.703 298.3 338.603C297.012 340.853 295.924 343.213 295.05 345.653C293.4 350.053 293.25 354.653 293.05 359.303C292.45 370.903 292.15 382.403 294.9 393.803C296.9 402.353 300.5 407.453 310.65 406.253C312.594 406.144 314.469 405.49 316.06 404.368C317.651 403.245 318.895 401.698 319.65 399.903C320.832 397.398 321.657 394.738 322.1 392.003C323.05 384.503 323.6 377.003 324.3 369.253V369.203ZM428.5 229.103C428.306 239.295 426.691 249.409 423.7 259.153C419.95 270.403 413 278.703 401.05 281.453C389.4 284.103 377.85 283.653 367.75 275.953C362.731 271.792 359.247 266.072 357.85 259.703C354.165 245.168 353.333 230.056 355.4 215.203C355.907 206.53 358.702 198.146 363.5 190.903C366.457 186.797 370.326 183.433 374.803 181.073C379.279 178.713 384.241 177.423 389.3 177.303C395.697 176.861 402.11 177.887 408.05 180.303C411.75 181.803 414.95 184.153 417.55 187.403C423.15 194.403 425.85 202.403 426.55 211.203C427.05 217.203 427.85 223.103 428.55 229.053L428.5 229.103ZM375.7 230.653C375.4 239.503 375.9 248.803 378.7 257.903C380.05 262.003 382.5 265.253 386.8 266.003C391.6 266.903 396.45 267.003 400.15 262.753C403.305 258.912 405.223 254.206 405.65 249.253C407.359 236.711 407.359 223.996 405.65 211.453C405.177 207.639 404.097 203.926 402.45 200.453C401.2 198.053 398.85 195.303 396.35 194.553C389.35 192.303 381.75 193.853 378.75 202.653C375.75 211.553 375.5 220.803 375.65 230.653H375.7Z"
		fill="#F9FCFE" />
	<path
		d="M422.653 420.853C421.353 420.903 419.803 421.103 418.253 421.103C401.553 421.103 384.803 420.953 368.103 421.153C363.103 421.253 361.703 419.353 361.703 414.953C361.703 413.253 361.603 411.553 361.703 409.853C361.953 406.653 363.053 405.503 366.453 405.403C370.453 405.303 374.553 405.403 378.603 405.403H383.003C384.153 401.653 384.453 346.403 383.503 339.403C382.153 339.903 380.853 340.253 379.703 340.903C376.103 343.003 372.603 345.253 368.953 347.253C367.691 347.853 366.34 348.242 364.953 348.403C363.103 348.703 361.803 347.953 361.703 346.003C361.603 343.103 361.503 340.153 361.703 337.203C361.803 336.153 362.703 334.953 363.553 334.203C365.353 332.703 367.303 331.503 369.253 330.253C373.653 327.453 378.253 324.853 382.553 321.753C386.151 319.255 390.478 318.023 394.853 318.253C397.903 318.303 401.003 318.853 404.653 319.253V404.953C407.153 405.103 409.153 405.353 411.153 405.403C413.903 405.453 416.753 405.303 419.553 405.403C423.503 405.553 424.753 406.853 425.053 410.803C425.445 414.323 424.615 417.872 422.703 420.853H422.653ZM322.003 265.353H336.003C340.603 265.403 341.503 266.103 341.753 270.703C341.804 273.3 341.603 275.895 341.153 278.453C340.903 280.203 339.653 281.103 337.803 281.053H285.803C280.553 281.053 280.103 280.553 279.503 275.353C279.433 274.889 279.383 274.422 279.353 273.953C279.003 266.253 279.853 265.353 287.503 265.353H297.803C300.803 265.203 301.253 264.853 301.303 261.703V245.503V199.503C299.903 200.003 298.753 200.203 297.803 200.753C293.803 202.853 289.953 205.153 285.953 207.253C284.353 208.053 282.503 208.403 280.703 209.003C278.885 205.235 278.494 200.937 279.603 196.903C280.007 195.443 280.909 194.169 282.153 193.303C288.853 188.803 295.553 184.403 302.403 180.153C304.003 179.153 306.203 179.003 308.153 178.603C312.653 177.603 317.003 179.103 322.003 179.003V265.353Z"
		fill="#FAFCFE" />
	<path
		d="M324.301 369.203C323.601 376.953 323.051 384.503 322.101 391.953C321.632 394.689 320.791 397.347 319.601 399.853C318.001 403.703 314.851 405.703 310.601 406.203C300.501 407.403 296.951 402.303 294.901 393.703C292.151 382.403 292.401 370.853 293.051 359.303C293.251 354.653 293.401 350.003 295.051 345.653C295.93 343.19 297.034 340.813 298.351 338.553C302.451 331.653 314.351 332.303 318.251 337.553C320.198 340.319 321.466 343.505 321.951 346.853C323.101 354.353 323.601 361.853 324.301 369.203ZM375.701 230.653C375.501 220.753 375.701 211.553 378.751 202.653C381.751 193.853 389.351 192.303 396.401 194.503C398.851 195.303 401.201 198.003 402.401 200.503C404.06 203.957 405.157 207.654 405.651 211.453C407.359 223.995 407.359 236.711 405.651 249.253C405.233 254.208 403.314 258.917 400.151 262.753C396.501 266.953 391.601 266.853 386.801 266.003C382.501 265.203 380.051 262.003 378.801 257.903C376.227 249.062 375.178 239.847 375.701 230.653Z"
		fill="#267ABE" />
</svg>
