<svg width="44" height="44" viewBox="0 0 44 44" fill="none" xmlns="http://www.w3.org/2000/svg">
<path d="M17.2346 35.843C16.6846 34.8346 16.2034 33.7881 15.7909 32.7034C15.3784 31.6187 15.0346 30.4957 14.7596 29.3346H9.3513C10.2374 30.8624 11.3451 32.1916 12.6742 33.3221C14.0034 34.4527 15.5235 35.293 17.2346 35.843ZM7.79297 25.668H14.0263C13.9346 25.0569 13.8659 24.4534 13.8201 23.8576C13.7742 23.2617 13.7513 22.643 13.7513 22.0013C13.7513 21.3596 13.7742 20.7409 13.8201 20.1451C13.8659 19.5492 13.9346 18.9457 14.0263 18.3346H7.79297C7.64019 18.9457 7.52561 19.5492 7.44922 20.1451C7.37283 20.7409 7.33464 21.3596 7.33464 22.0013C7.33464 22.643 7.37283 23.2617 7.44922 23.8576C7.52561 24.4534 7.64019 25.0569 7.79297 25.668ZM9.3513 14.668H14.7596C15.0346 13.5069 15.3784 12.3839 15.7909 11.2992C16.2034 10.2145 16.6846 9.16797 17.2346 8.15964C15.5235 8.70964 14.0034 9.54991 12.6742 10.6805C11.3451 11.811 10.2374 13.1402 9.3513 14.668ZM18.518 14.668H25.4846C25.118 13.3235 24.6444 12.0555 24.0638 10.8638C23.4832 9.67214 22.7957 8.5263 22.0013 7.4263C21.2069 8.5263 20.5194 9.67214 19.9388 10.8638C19.3582 12.0555 18.8846 13.3235 18.518 14.668ZM29.243 14.668H34.6513C33.7652 13.1402 32.6576 11.811 31.3284 10.6805C29.9992 9.54991 28.4791 8.70964 26.768 8.15964C27.318 9.16797 27.7992 10.2145 28.2117 11.2992C28.6242 12.3839 28.968 13.5069 29.243 14.668ZM22.0013 40.3346C19.4957 40.3346 17.1277 39.8534 14.8971 38.8909C12.6666 37.9284 10.7187 36.6145 9.05339 34.9492C7.38811 33.2839 6.07422 31.336 5.11172 29.1055C4.14922 26.8749 3.66797 24.5069 3.66797 22.0013C3.66797 19.4652 4.14922 17.0895 5.11172 14.8742C6.07422 12.6589 7.38811 10.7187 9.05339 9.05339C10.7187 7.38811 12.6666 6.07422 14.8971 5.11172C17.1277 4.14922 19.4957 3.66797 22.0013 3.66797C24.5374 3.66797 26.9131 4.14922 29.1284 5.11172C31.3437 6.07422 33.2839 7.38811 34.9492 9.05339C36.6145 10.7187 37.9284 12.6589 38.8909 14.8742C39.8534 17.0895 40.3346 19.4652 40.3346 22.0013C40.3346 22.3069 40.327 22.6124 40.3117 22.918C40.2964 23.2235 40.2735 23.5291 40.243 23.8346H36.5305C36.5916 23.5291 36.6298 23.2312 36.6451 22.9409C36.6603 22.6506 36.668 22.3374 36.668 22.0013C36.668 21.3596 36.6298 20.7409 36.5534 20.1451C36.477 19.5492 36.3624 18.9457 36.2096 18.3346H29.9763C30.068 18.9457 30.1367 19.5492 30.1826 20.1451C30.2284 20.7409 30.2513 21.3596 30.2513 22.0013V22.9409C30.2513 23.2312 30.236 23.5291 30.2055 23.8346H26.5388C26.5694 23.5291 26.5846 23.2312 26.5846 22.9409V22.0013C26.5846 21.3596 26.5617 20.7409 26.5159 20.1451C26.4701 19.5492 26.4013 18.9457 26.3096 18.3346H17.693C17.6013 18.9457 17.5326 19.5492 17.4867 20.1451C17.4409 20.7409 17.418 21.3596 17.418 22.0013C17.418 22.643 17.4409 23.2617 17.4867 23.8576C17.5326 24.4534 17.6013 25.0569 17.693 25.668H23.8346V29.3346H18.518C18.8846 30.6791 19.3582 31.9471 19.9388 33.1388C20.5194 34.3305 21.2069 35.4763 22.0013 36.5763C22.3374 36.0874 22.6582 35.5909 22.9638 35.0867C23.2694 34.5826 23.5596 34.0707 23.8346 33.5513V40.243C23.5291 40.2735 23.2312 40.2964 22.9409 40.3117C22.6506 40.327 22.3374 40.3346 22.0013 40.3346ZM31.168 33.7805V36.0263C31.168 36.5457 30.9923 36.9812 30.6409 37.3326C30.2895 37.6839 29.8541 37.8596 29.3346 37.8596C28.8152 37.8596 28.3798 37.6839 28.0284 37.3326C27.677 36.9812 27.5013 36.5457 27.5013 36.0263V29.3346C27.5013 28.8152 27.677 28.3798 28.0284 28.0284C28.3798 27.677 28.8152 27.5013 29.3346 27.5013H36.0263C36.5457 27.5013 36.9812 27.677 37.3326 28.0284C37.6839 28.3798 37.8596 28.8152 37.8596 29.3346C37.8596 29.8541 37.6839 30.2895 37.3326 30.6409C36.9812 30.9923 36.5457 31.168 36.0263 31.168H33.7346L37.8596 35.293C38.1957 35.6291 38.3638 36.0492 38.3638 36.5534C38.3638 37.0576 38.1957 37.493 37.8596 37.8596C37.493 38.2263 37.0576 38.4096 36.5534 38.4096C36.0492 38.4096 35.6138 38.2263 35.2471 37.8596L31.168 33.7805Z" fill="black"/>
</svg>
