<svg width="360" height="270" viewBox="0 0 360 270" fill="none" xmlns="http://www.w3.org/2000/svg">
	<path d="M82 270V128L0 65V240C0 260 10 270 30 270" fill="#4285F4" />
	<path d="M78 127L180 204L282 127V29L180 106L78 29" fill="#EA4335" />
	<path d="M278 270V128L360 65V240C360 260 350 270 330 270" fill="#34A853" />
	<path d="M0 66.9991L82 129.999V31.9991L52 8.99914C25 -12.0009 0 8.99915 0 34.9991"
		fill="#C5221F" />
	<path d="M360 66.9991L278 129.999V31.9991L308 8.99914C335 -12.0009 360 8.99915 360 34.9991"
		fill="#FBBC04" />
</svg>