<svg width="550" height="500" viewBox="0 0 550 500" fill="none" xmlns="http://www.w3.org/2000/svg">
	<path
		d="M275.051 161.271L188.529 8.57806C191.401 5.65331 194.706 3.73481 198.011 2.44531C172.499 10.8426 160.791 39.4941 160.791 39.4941L2.72759 318.366C0.503586 327.111 -0.114165 335.004 0.163835 341.956H172.684L275.051 161.271Z"
		fill="#34A853" />
	<path
		d="M275.047 161.271L377.414 341.956H549.934C550.212 335.004 549.594 327.111 547.369 318.366L389.307 39.4941C389.307 39.4941 377.569 10.8426 352.084 2.44531C355.359 3.73481 358.694 5.65331 361.567 8.57806L275.047 161.271Z"
		fill="#FBBC05" />
	<path
		d="M275.046 161.285L361.568 8.59281C358.696 5.66781 355.358 3.74931 352.086 2.45981C348.316 1.23331 344.271 0.415562 339.883 0.195312H335.311H214.781H210.208C205.853 0.384063 201.776 1.20181 198.006 2.45981C194.733 3.74931 191.396 5.66781 188.523 8.59281L275.046 161.285Z"
		fill="#188038" />
	<path
		d="M172.705 341.953L87.1717 492.918C87.1717 492.918 84.33 491.533 80.4688 488.671C92.6085 498.013 104.408 499.993 104.408 499.993H440.335C458.867 499.993 462.73 492.918 462.73 492.918C462.79 492.886 462.823 492.853 462.883 492.823L377.413 341.953H172.705Z"
		fill="#4285F4" />
	<path
		d="M172.715 341.953H0.195312C1.06031 362.461 9.95656 374.443 9.95656 374.443L16.4433 385.701C16.9068 386.363 17.1848 386.741 17.1848 386.741L31.3013 411.523L62.9941 466.688C63.9208 468.921 65.0021 470.963 66.1451 472.913C66.5773 473.576 66.9788 474.298 67.4423 474.928C67.5658 475.116 67.6893 475.306 67.8131 475.493C71.7361 481.028 76.1223 485.306 80.5086 488.671C84.3698 491.566 87.2118 492.918 87.2118 492.918L172.715 341.953Z"
		fill="#1967D2" />
	<path
		d="M377.414 341.953H549.932C549.067 362.461 540.172 374.443 540.172 374.443L533.684 385.701C533.222 386.363 532.944 386.741 532.944 386.741L518.827 411.523L487.134 466.688C486.207 468.921 485.127 470.963 483.984 472.913C483.552 473.576 483.149 474.298 482.687 474.928C482.562 475.116 482.439 475.306 482.314 475.493C478.392 481.028 474.007 485.306 469.619 488.671C465.759 491.566 462.917 492.918 462.917 492.918L377.414 341.953Z"
		fill="#EA4335" />
</svg>
