<svg width="38" height="41" viewBox="0 0 38 41" fill="none" xmlns="http://www.w3.org/2000/svg">
<path d="M18.9826 4.82422C20.598 4.82422 22.1755 5.02161 23.7152 5.4164C25.2549 5.81221 26.7441 6.37991 28.1828 7.11949C28.4099 7.22151 28.5427 7.36789 28.5811 7.55866C28.6184 7.75044 28.5992 7.93559 28.5235 8.11411C28.4478 8.29263 28.3216 8.4329 28.1449 8.53491C27.9682 8.63693 27.7537 8.62417 27.5013 8.49666C26.1635 7.80808 24.7814 7.27863 23.3548 6.90833C21.9292 6.53904 20.4718 6.3544 18.9826 6.3544C17.5187 6.3544 16.08 6.52629 14.6665 6.87007C13.253 7.21488 11.9027 7.75707 10.6154 8.49666C10.4135 8.62417 10.2181 8.6558 10.0293 8.59153C9.83951 8.52828 9.68151 8.39465 9.5553 8.19062C9.47958 7.9866 9.4609 7.80145 9.49927 7.63517C9.53663 7.46991 9.65627 7.32352 9.85819 7.196C11.2717 6.43091 12.7482 5.84434 14.2879 5.43629C15.8276 5.02824 17.3925 4.82422 18.9826 4.82422ZM18.9826 8.57317C21.6581 8.57317 24.1822 9.15311 26.5548 10.313C28.9274 11.4739 30.9087 13.151 32.4989 15.3442C32.6503 15.5738 32.7008 15.7778 32.6503 15.9563C32.5999 16.1348 32.4989 16.2878 32.3475 16.4154C32.196 16.5429 32.0193 16.6 31.8174 16.5867C31.6155 16.5745 31.4388 16.4664 31.2874 16.2623C29.8991 14.2731 28.1136 12.749 25.9308 11.6902C23.747 10.6323 21.4309 10.1034 18.9826 10.1034C16.5343 10.1034 14.2374 10.6323 12.092 11.6902C9.94653 12.749 8.16708 14.2731 6.75361 16.2623C6.60217 16.4919 6.42548 16.6194 6.22356 16.6449C6.02164 16.6704 5.84495 16.6194 5.69351 16.4919C5.51683 16.3644 5.40325 16.2047 5.35276 16.0129C5.30228 15.8222 5.36538 15.6248 5.54207 15.4207C7.08174 13.253 9.03787 11.5698 11.4105 10.3711C13.7831 9.17249 16.3071 8.57317 18.9826 8.57317ZM18.9826 15.8798C21.33 15.8798 23.3492 16.6765 25.0403 18.2699C26.7314 19.8644 27.577 21.822 27.577 24.1428C27.577 24.3723 27.5073 24.557 27.368 24.6967C27.2297 24.8375 27.047 24.9079 26.8198 24.9079C26.6179 24.9079 26.4412 24.8375 26.2897 24.6967C26.1383 24.557 26.0626 24.3723 26.0626 24.1428C26.0626 22.2301 25.3619 20.6295 23.9606 19.3411C22.5602 18.0537 20.9009 17.41 18.9826 17.41C17.0643 17.41 15.4172 18.0537 14.041 19.3411C12.6659 20.6295 11.9784 22.2301 11.9784 24.1428C11.9784 26.2085 12.3318 27.9616 13.0385 29.402C13.7452 30.8435 14.7801 32.291 16.1431 33.7447C16.2945 33.8977 16.3702 34.0762 16.3702 34.2802C16.3702 34.4843 16.2945 34.6628 16.1431 34.8158C15.9916 34.9688 15.8149 35.0453 15.613 35.0453C15.4111 35.0453 15.2344 34.9688 15.083 34.8158C13.5938 33.2346 12.4519 31.6213 11.6573 29.9758C10.8618 28.3314 10.464 26.3871 10.464 24.1428C10.464 21.822 11.2969 19.8644 12.9628 18.2699C14.6286 16.6765 16.6353 15.8798 18.9826 15.8798ZM18.9448 23.3777C19.1719 23.3777 19.3552 23.4542 19.4945 23.6072C19.6328 23.7602 19.702 23.9388 19.702 24.1428C19.702 26.0555 20.3835 27.624 21.7465 28.8481C23.1094 30.0722 24.6996 30.6843 26.5169 30.6843C26.6683 30.6843 26.8829 30.6716 27.1605 30.6461C27.4382 30.6206 27.7284 30.5823 28.0313 30.5313C28.2585 30.4803 28.4544 30.5119 28.6189 30.6262C28.7825 30.7414 28.8895 30.9138 28.94 31.1434C28.9905 31.3474 28.9526 31.5259 28.8264 31.6789C28.7002 31.832 28.5361 31.934 28.3342 31.985C27.8799 32.1125 27.4826 32.1829 27.1424 32.1961C26.8011 32.2084 26.5926 32.2145 26.5169 32.2145C24.2705 32.2145 22.3204 31.4494 20.6667 29.9192C19.0139 28.389 18.1875 26.4636 18.1875 24.1428C18.1875 23.9388 18.2567 23.7602 18.395 23.6072C18.5344 23.4542 18.7176 23.3777 18.9448 23.3777ZM18.9826 19.6287C20.2699 19.6287 21.3678 20.0623 22.2765 20.9294C23.1852 21.7965 23.6395 22.8676 23.6395 24.1428C23.6395 24.9844 23.955 25.6924 24.586 26.2667C25.217 26.84 25.9616 27.1266 26.8198 27.1266C27.678 27.1266 28.4099 26.84 29.0157 26.2667C29.6215 25.6924 29.9244 24.9844 29.9244 24.1428C29.9244 21.1844 28.8516 18.6979 26.7062 16.6831C24.5608 14.6684 21.9989 13.661 19.0205 13.661C16.0421 13.661 13.4802 14.6684 11.3348 16.6831C9.18932 18.6979 8.1166 21.1717 8.1166 24.1045C8.1166 24.7166 8.17364 25.4817 8.28773 26.3998C8.4008 27.3179 8.67189 28.389 9.10098 29.6132C9.1767 29.8427 9.17064 30.0467 9.0828 30.2253C8.99396 30.4038 8.84857 30.5313 8.64665 30.6078C8.44472 30.6843 8.24886 30.6777 8.05905 30.5879C7.87025 30.4992 7.73799 30.3528 7.66227 30.1488C7.28366 29.1541 7.01258 28.1656 6.84902 27.1833C6.68445 26.2019 6.60217 25.1884 6.60217 24.1428C6.60217 20.7509 7.82027 17.9073 10.2565 15.612C12.6917 13.3167 15.6004 12.1691 18.9826 12.1691C22.3901 12.1691 25.318 13.3167 27.7663 15.612C30.2146 17.9073 31.4388 20.7509 31.4388 24.1428C31.4388 25.4179 30.991 26.4829 30.0955 27.3378C29.199 28.1917 28.1071 28.6186 26.8198 28.6186C25.5325 28.6186 24.4285 28.1917 23.5077 27.3378C22.586 26.4829 22.1251 25.4179 22.1251 24.1428C22.1251 23.3012 21.8161 22.5932 21.1982 22.0189C20.5793 21.4456 19.8408 21.1589 18.9826 21.1589C18.1244 21.1589 17.3859 21.4456 16.767 22.0189C16.1491 22.5932 15.8402 23.3012 15.8402 24.1428C15.8402 26.6166 16.5661 28.6823 18.0179 30.34C19.4688 31.9977 21.3426 33.1581 23.6395 33.8212C23.8667 33.9232 24.0181 34.0568 24.0938 34.2221C24.1695 34.3884 24.1822 34.5735 24.1317 34.7776C24.0812 34.9561 23.9802 35.1091 23.8288 35.2366C23.6774 35.3641 23.488 35.4024 23.2609 35.3514C20.6359 34.6628 18.4904 33.3366 16.8246 31.3729C15.1587 29.4092 14.3258 26.9991 14.3258 24.1428C14.3258 22.8676 14.7801 21.7965 15.6887 20.9294C16.5974 20.0623 17.6954 19.6287 18.9826 19.6287Z" fill="#56565A"/>
<path d="M9.75682 3.72727H4.20976V9.31818H0.511719V0H9.75682V3.72727ZM37.4921 9.31818V0H28.247V3.72727H33.7941V9.31818H37.4921ZM9.75682 37.2727H4.20976V31.6818H0.511719V41H9.75682V37.2727ZM33.7941 31.6818V37.2727H28.247V41H37.4921V31.6818H33.7941Z" fill="#56565A"/>
</svg>
