<svg width="352" height="269" viewBox="0 0 352 269" fill="none" xmlns="http://www.w3.org/2000/svg">
	<path
		d="M306.361 29.8889L348.886 14.9444L306.361 0L263.837 14.9444L306.361 29.8889ZM313.833 42.3451V89.6667L351.194 77.2105V29.8889L313.833 42.3451ZM298.889 42.3451L261.528 29.8889V77.2105L298.889 89.6667V42.3451ZM201.75 29.8889L244.274 14.9444L201.75 0L159.226 14.9444L201.75 29.8889ZM209.222 42.3451V89.6667L246.583 77.2105V29.8889L209.222 42.3451ZM194.278 42.3451L156.917 29.8889V77.2105L194.278 89.6667V42.3451ZM149.444 119.556L191.969 104.611L149.444 89.6667L106.92 104.611L149.444 119.556ZM156.917 132.012V179.333L194.278 166.877V119.556L156.917 132.012ZM141.972 132.012L104.611 119.556V166.877L141.972 179.333V132.012ZM44.8333 119.556L87.3578 104.611L44.8333 89.6667L2.30892 104.611L44.8333 119.556ZM52.3056 132.012V179.333L89.6667 166.877V119.556L52.3056 132.012ZM37.3611 132.012L0 119.556V166.877L37.3611 179.333V132.012ZM97.1389 209.222L139.663 194.278L97.1389 179.333L54.6145 194.278L97.1389 209.222ZM104.611 221.678V269L141.972 256.544V209.222L104.611 221.678ZM89.6667 221.678L52.3056 209.222V256.544L89.6667 269V221.678Z"
		fill="#FF8F00" />
</svg>
