<svg width="42" height="52" viewBox="0 0 42 52" fill="none" xmlns="http://www.w3.org/2000/svg">
<path d="M26 0L41.5996 15.5996V46.7998C41.5996 47.268 41.5354 47.722 41.418 48.1543L35.5938 42.3301C36.5037 40.7962 37.0497 39.0025 37.0498 37.0527C37.0498 31.2289 32.4742 26.6525 26.6504 26.6523C20.8264 26.6523 16.25 31.2287 16.25 37.0527C16.2502 42.8765 20.8265 47.4521 26.6504 47.4521C28.6002 47.4521 30.3939 46.906 31.9277 45.9961L37.751 51.8193C37.3198 51.9361 36.8672 52 36.4004 52H5.17383C2.31391 51.9999 0 49.6597 0 46.7998L0.0263672 5.2002C0.0263672 2.3402 2.3402 0 5.2002 0H26ZM26.6504 31.8525C29.5622 31.8527 31.8496 34.1409 31.8496 37.0527C31.8494 39.9644 29.5621 42.2517 26.6504 42.252C23.7385 42.252 21.4504 39.9645 21.4502 37.0527C21.4502 34.1407 23.7384 31.8525 26.6504 31.8525ZM23.4004 18.2002H37.7002L23.4004 3.90039V18.2002Z" fill="#56565A"/>
</svg>
