<svg width="53" height="51" viewBox="0 0 53 51" fill="none" xmlns="http://www.w3.org/2000/svg">
<path d="M7.38995 37.5789L6.31505 36.6395C3.9861 34.5816 2.35135 32.2329 1.41081 29.5934C0.47027 26.9539 0 24.2921 0 21.6079C0 17.4026 1.06371 13.5888 3.19112 10.1664C5.31853 6.74408 8.19613 4.11579 11.8239 2.28158C12.4509 1.92368 13.1228 1.90132 13.8394 2.21447C14.556 2.52763 15.0262 3.04211 15.2502 3.75789C15.4741 4.42895 15.4629 5.1 15.2166 5.77105C14.9703 6.44211 14.5336 6.95658 13.9065 7.31447C11.3089 8.74605 9.23744 10.7257 7.69227 13.2533C6.1471 15.7809 5.37451 18.5658 5.37451 21.6079C5.37451 23.6211 5.7552 25.5783 6.51659 27.4796C7.27798 29.3809 8.46485 31.1368 10.0772 32.7474L10.749 33.4184V29.5263C10.749 28.7658 11.0065 28.1283 11.5216 27.6138C12.0367 27.0993 12.6749 26.8421 13.4363 26.8421C14.1977 26.8421 14.8359 27.0993 15.3509 27.6138C15.866 28.1283 16.1235 28.7658 16.1235 29.5263V40.2632C16.1235 41.0237 15.866 41.6612 15.3509 42.1757C14.8359 42.6901 14.1977 42.9474 13.4363 42.9474H2.68726C1.92587 42.9474 1.28764 42.6901 0.772586 42.1757C0.257529 41.6612 0 41.0237 0 40.2632C0 39.5026 0.257529 38.8651 0.772586 38.3507C1.28764 37.8362 1.92587 37.5789 2.68726 37.5789H7.38995ZM37.6216 9.52895V13.4211C37.6216 14.1816 37.364 14.8191 36.849 15.3336C36.3339 15.848 35.6957 16.1053 34.9343 16.1053C34.1729 16.1053 33.5347 15.848 33.0196 15.3336C32.5046 14.8191 32.2471 14.1816 32.2471 13.4211V2.68421C32.2471 1.92368 32.5046 1.28618 33.0196 0.771711C33.5347 0.257237 34.1729 0 34.9343 0H45.6833C46.4447 0 47.0829 0.257237 47.598 0.771711C48.1131 1.28618 48.3706 1.92368 48.3706 2.68421C48.3706 3.44474 48.1131 4.08224 47.598 4.59671C47.0829 5.11118 46.4447 5.36842 45.6833 5.36842H40.9806L42.0555 6.30789C43.8918 8.18684 45.3026 10.1776 46.288 12.2803C47.2733 14.3829 47.9003 16.5526 48.169 18.7895H42.7274C42.5034 17.2237 42.022 15.725 41.283 14.2934C40.544 12.8618 39.5474 11.4974 38.2934 10.2L37.6216 9.52895ZM38.6965 51C38.3382 51 38.0583 50.8993 37.8567 50.698C37.6552 50.4967 37.5096 50.2395 37.42 49.9263L36.8154 46.9737C36.2779 46.75 35.7741 46.5151 35.3038 46.2691C34.8335 46.023 34.3521 45.7211 33.8594 45.3632L30.9706 46.2355C30.6571 46.325 30.366 46.3138 30.0973 46.202C29.8285 46.0901 29.6046 45.9 29.4254 45.6316L27.8131 42.9474C27.6339 42.6789 27.5892 42.3882 27.6787 42.075C27.7683 41.7618 27.9251 41.4934 28.149 41.2697L30.366 39.3237C30.2764 38.6974 30.2316 38.1158 30.2316 37.5789C30.2316 37.0421 30.2764 36.4605 30.366 35.8342L28.149 33.8882C27.9251 33.6645 27.7683 33.3961 27.6787 33.0829C27.5892 32.7697 27.6339 32.4789 27.8131 32.2105L29.4254 29.5263C29.6046 29.2579 29.8285 29.0678 30.0973 28.9559C30.366 28.8441 30.6571 28.8329 30.9706 28.9224L33.8594 29.7947C34.3521 29.4368 34.8335 29.1349 35.3038 28.8888C35.7741 28.6428 36.2779 28.4079 36.8154 28.1842L37.42 25.2316C37.5096 24.9184 37.6552 24.6612 37.8567 24.4599C38.0583 24.2586 38.3382 24.1579 38.6965 24.1579H41.9212C42.2795 24.1579 42.5594 24.2586 42.7609 24.4599C42.9625 24.6612 43.1081 24.9184 43.1976 25.2316L43.8023 28.1842C44.3397 28.4079 44.8436 28.6539 45.3138 28.9224C45.7841 29.1908 46.2656 29.5263 46.7582 29.9289L49.5799 28.9224C49.8934 28.8329 50.1957 28.8441 50.4868 28.9559C50.7779 29.0678 51.0131 29.2579 51.1922 29.5263L52.8046 32.3447C52.9837 32.6132 53.0397 32.9039 52.9725 33.2171C52.9053 33.5303 52.7598 33.7987 52.5358 34.0224L50.2517 35.9684C50.3412 36.5053 50.386 37.0645 50.386 37.6461C50.386 38.2276 50.3412 38.7868 50.2517 39.3237L52.4687 41.2697C52.6926 41.4934 52.8494 41.7618 52.9389 42.075C53.0285 42.3882 52.9837 42.6789 52.8046 42.9474L51.1922 45.6316C51.0131 45.9 50.7891 46.0901 50.5204 46.202C50.2517 46.3138 49.9606 46.325 49.647 46.2355L46.7582 45.3632C46.2656 45.7211 45.7841 46.023 45.3138 46.2691C44.8436 46.5151 44.3397 46.75 43.8023 46.9737L43.1976 49.9263C43.1081 50.2395 42.9625 50.4967 42.7609 50.698C42.5594 50.8993 42.2795 51 41.9212 51H38.6965ZM40.3088 42.9474C41.7868 42.9474 43.0521 42.4217 44.1046 41.3704C45.1571 40.3191 45.6833 39.0553 45.6833 37.5789C45.6833 36.1026 45.1571 34.8388 44.1046 33.7875C43.0521 32.7362 41.7868 32.2105 40.3088 32.2105C38.8308 32.2105 37.5656 32.7362 36.5131 33.7875C35.4606 34.8388 34.9343 36.1026 34.9343 37.5789C34.9343 39.0553 35.4606 40.3191 36.5131 41.3704C37.5656 42.4217 38.8308 42.9474 40.3088 42.9474Z" fill="#56565A"/>
</svg>
