<svg width="548" height="534" viewBox="0 0 548 534" fill="none" xmlns="http://www.w3.org/2000/svg">
	<path
		d="M280.35 305.098C364.507 305.098 432.731 236.875 432.731 152.717C432.731 68.5592 364.507 0.335938 280.35 0.335938C196.192 0.335938 127.969 68.5592 127.969 152.717C127.969 236.875 196.192 305.098 280.35 305.098Z"
		fill="#036C70" />
	<path
		d="M407.331 432.076C484.476 432.076 547.014 369.538 547.014 292.394C547.014 215.249 484.476 152.711 407.331 152.711C330.186 152.711 267.648 215.249 267.648 292.394C267.648 369.538 330.186 432.076 407.331 432.076Z"
		fill="#1A9BA1" />
	<path
		d="M299.397 533.67C359.009 533.67 407.334 485.345 407.334 425.733C407.334 366.122 359.009 317.797 299.397 317.797C239.786 317.797 191.461 366.122 191.461 425.733C191.461 485.345 239.786 533.67 299.397 533.67Z"
		fill="#37C6D0" />
	<path opacity="0.1"
		d="M305.746 137.855V408.839C305.683 418.255 299.976 426.714 291.269 430.3C288.497 431.472 285.518 432.077 282.507 432.077H191.587C191.46 429.919 191.46 427.887 191.46 425.728C191.418 423.608 191.502 421.488 191.714 419.379C194.038 378.788 219.044 342.974 256.349 326.807V303.188C173.325 290.032 116.687 212.063 129.843 129.039C129.935 128.464 130.029 127.889 130.127 127.316C130.759 123.033 131.649 118.792 132.793 114.617H282.508C295.321 114.666 305.697 125.042 305.746 137.855Z"
		fill="black" />
	<path opacity="0.2"
		d="M269.812 127.32H130.129C116.019 210.194 171.762 288.816 254.636 302.926C257.145 303.353 259.665 303.718 262.193 304.019C222.828 322.685 194.142 375.701 191.704 419.384C191.492 421.493 191.408 423.613 191.45 425.733C191.45 427.892 191.45 429.923 191.577 432.082C191.806 436.351 192.358 440.595 193.227 444.781H269.799C279.215 444.717 287.674 439.011 291.259 430.304C292.432 427.532 293.036 424.553 293.037 421.542V150.558C292.989 137.75 282.621 127.376 269.812 127.32Z"
		fill="black" />
	<path opacity="0.2"
		d="M269.811 127.32H130.128C116.021 210.202 171.773 288.827 254.654 302.935C256.349 303.223 258.05 303.483 259.754 303.714C221.658 323.727 194.103 376.616 191.716 419.384H269.811C282.604 419.287 292.952 408.939 293.049 396.146V150.558C293 137.745 282.624 127.369 269.811 127.32Z"
		fill="black" />
	<path opacity="0.2"
		d="M257.108 127.32H130.124C116.803 205.561 165.829 280.908 242.759 300.425C213.63 333.706 195.763 375.342 191.711 419.384H257.108C269.922 419.335 280.298 408.959 280.346 396.146V150.558C280.339 137.727 269.939 127.327 257.108 127.32Z"
		fill="black" />
	<path
		d="M24.2606 127.32H257.073C269.928 127.32 280.349 137.741 280.349 150.597V383.409C280.349 396.264 269.928 406.685 257.073 406.685H24.2606C11.4055 406.685 0.984375 396.264 0.984375 383.409V150.597C0.984375 137.741 11.4055 127.32 24.2606 127.32Z"
		fill="url(#paint0_linear_935_563)" />
	<path
		d="M104.943 264.156C99.4878 260.538 94.9317 255.721 91.622 250.074C88.4152 244.17 86.8168 237.527 86.987 230.81C86.7014 221.716 89.7702 212.835 95.6092 205.858C101.745 198.872 109.676 193.699 118.543 190.899C128.648 187.573 139.232 185.934 149.869 186.048C163.858 185.537 177.828 187.493 191.139 191.826V221.033C185.355 217.529 179.056 214.958 172.472 213.414C165.329 211.662 157.999 210.783 150.644 210.798C142.888 210.513 135.181 212.144 128.206 215.547C125.571 216.683 123.325 218.565 121.746 220.961C120.167 223.357 119.323 226.163 119.317 229.033C119.295 232.59 120.662 236.016 123.127 238.582C126.038 241.607 129.482 244.069 133.285 245.845C137.518 247.953 143.867 250.756 152.333 254.252C153.265 254.546 154.174 254.912 155.05 255.344C163.382 258.6 171.42 262.564 179.076 267.192C184.874 270.766 189.739 275.667 193.273 281.49C196.895 288.091 198.651 295.554 198.352 303.077C198.766 312.414 195.909 321.602 190.276 329.058C184.661 335.913 177.153 340.965 168.688 343.585C158.732 346.706 148.34 348.215 137.907 348.055C128.547 348.097 119.2 347.333 109.971 345.769C102.178 344.494 94.5734 342.259 87.3299 339.115V308.322C94.2539 313.267 101.99 316.963 110.187 319.242C118.357 321.788 126.85 323.148 135.406 323.28C143.325 323.782 151.23 322.104 158.263 318.43C160.681 317.065 162.683 315.07 164.056 312.657C165.43 310.244 166.122 307.504 166.06 304.728C166.076 302.78 165.703 300.849 164.961 299.047C164.22 297.246 163.126 295.611 161.743 294.239C158.269 290.829 154.247 288.026 149.844 285.947C144.765 283.407 137.286 280.059 127.406 275.903C119.547 272.743 112.022 268.808 104.943 264.156Z"
		fill="white" />
	<defs>
		<linearGradient id="paint0_linear_935_563" x1="49.5158" y1="109.133" x2="231.818"
			y2="424.873" gradientUnits="userSpaceOnUse">
			<stop stop-color="#058F92" />
			<stop offset="0.5" stop-color="#038489" />
			<stop offset="1" stop-color="#026D71" />
		</linearGradient>
	</defs>
</svg>
