<svg width="96" height="96" viewBox="0 0 96 96" fill="none" xmlns="http://www.w3.org/2000/svg">
<g clip-path="url(#clip0_656_569)">
<path d="M12 24H4V76C4 80.4 7.6 84 12 84H80V76H12V24Z" fill="#183355"/>
<path d="M84 16H56L48 8H28C23.6 8 20.04 11.6 20.04 16L20 60C20 64.4 23.6 68 28 68H84C88.4 68 92 64.4 92 60V24C92 19.6 88.4 16 84 16Z" fill="#183355"/>
<path d="M38.3657 50.24C37.2137 50.24 36.1897 50.08 35.2937 49.76C34.3977 49.44 33.5417 48.912 32.7257 48.176C32.5497 48.048 32.4137 47.896 32.3177 47.72C32.2377 47.528 32.1977 47.336 32.1977 47.144C32.1977 46.84 32.3097 46.568 32.5337 46.328C32.7577 46.088 33.0377 45.968 33.3737 45.968C33.6297 45.968 33.8697 46.056 34.0937 46.232C34.7017 46.792 35.3337 47.216 35.9897 47.504C36.6617 47.792 37.4457 47.936 38.3417 47.936C38.9817 47.936 39.5657 47.832 40.0937 47.624C40.6377 47.416 41.0697 47.136 41.3897 46.784C41.7097 46.432 41.8697 46.024 41.8697 45.56C41.8697 44.984 41.7017 44.512 41.3657 44.144C41.0457 43.76 40.5737 43.448 39.9497 43.208C39.3417 42.952 38.6057 42.736 37.7417 42.56C36.9417 42.416 36.2217 42.216 35.5817 41.96C34.9577 41.704 34.4217 41.384 33.9737 41C33.5257 40.6 33.1817 40.128 32.9417 39.584C32.7017 39.04 32.5817 38.408 32.5817 37.688C32.5817 36.712 32.8377 35.872 33.3497 35.168C33.8617 34.464 34.5577 33.92 35.4377 33.536C36.3177 33.152 37.3097 32.96 38.4137 32.96C39.4217 32.96 40.3657 33.12 41.2457 33.44C42.1257 33.744 42.8377 34.16 43.3817 34.688C43.7657 35.024 43.9577 35.384 43.9577 35.768C43.9577 36.056 43.8377 36.328 43.5977 36.584C43.3737 36.824 43.1097 36.944 42.8057 36.944C42.5817 36.944 42.3897 36.88 42.2297 36.752C41.9737 36.48 41.6297 36.24 41.1977 36.032C40.7657 35.808 40.3017 35.624 39.8057 35.48C39.3257 35.336 38.8617 35.264 38.4137 35.264C37.6937 35.264 37.0777 35.368 36.5657 35.576C36.0537 35.768 35.6617 36.04 35.3897 36.392C35.1177 36.728 34.9817 37.128 34.9817 37.592C34.9817 38.136 35.1337 38.584 35.4377 38.936C35.7577 39.288 36.1977 39.576 36.7577 39.8C37.3177 40.008 37.9577 40.2 38.6777 40.376C39.5577 40.568 40.3417 40.784 41.0297 41.024C41.7337 41.264 42.3257 41.576 42.8057 41.96C43.2857 42.328 43.6537 42.792 43.9097 43.352C44.1657 43.912 44.2937 44.608 44.2937 45.44C44.2937 46.4 44.0217 47.24 43.4777 47.96C42.9337 48.68 42.2137 49.24 41.3177 49.64C40.4377 50.04 39.4537 50.24 38.3657 50.24ZM48.4928 33.176C48.6848 33.176 48.8848 33.224 49.0928 33.32C49.3008 33.416 49.4608 33.552 49.5728 33.728L55.6688 43.016L54.6368 42.968L60.8528 33.728C61.1088 33.36 61.4368 33.176 61.8368 33.176C62.1568 33.176 62.4368 33.296 62.6768 33.536C62.9328 33.76 63.0608 34.048 63.0608 34.4V48.776C63.0608 49.128 62.9488 49.424 62.7248 49.664C62.5008 49.888 62.2048 50 61.8368 50C61.4528 50 61.1408 49.888 60.9008 49.664C60.6768 49.424 60.5648 49.128 60.5648 48.776V36.608L61.3328 36.776L56.0528 44.816C55.9408 44.96 55.7968 45.088 55.6208 45.2C55.4448 45.296 55.2608 45.336 55.0688 45.32C54.8928 45.336 54.7088 45.296 54.5168 45.2C54.3408 45.088 54.1968 44.96 54.0848 44.816L48.9968 36.896L49.5728 35.936V48.776C49.5728 49.128 49.4608 49.424 49.2368 49.664C49.0288 49.888 48.7488 50 48.3968 50C48.0608 50 47.7808 49.888 47.5568 49.664C47.3488 49.424 47.2448 49.128 47.2448 48.776V34.4C47.2448 34.064 47.3648 33.776 47.6048 33.536C47.8608 33.296 48.1568 33.176 48.4928 33.176ZM74.3472 33.2C75.8192 33.2 76.9312 33.56 77.6832 34.28C78.4512 35 78.8352 36.048 78.8352 37.424C78.8352 38.144 78.6592 38.8 78.3072 39.392C77.9712 39.968 77.4672 40.424 76.7952 40.76C76.1392 41.096 75.3152 41.272 74.3232 41.288L74.3712 40.4C74.8992 40.4 75.4672 40.472 76.0752 40.616C76.6992 40.76 77.2832 41.008 77.8272 41.36C78.3712 41.712 78.8192 42.192 79.1712 42.8C79.5232 43.392 79.6992 44.136 79.6992 45.032C79.6992 46.008 79.5392 46.824 79.2192 47.48C78.8992 48.12 78.4752 48.624 77.9472 48.992C77.4192 49.36 76.8352 49.624 76.1952 49.784C75.5712 49.928 74.9552 50 74.3472 50H68.2032C67.8672 50 67.5792 49.888 67.3392 49.664C67.0992 49.424 66.9792 49.128 66.9792 48.776V34.424C66.9792 34.072 67.0992 33.784 67.3392 33.56C67.5792 33.32 67.8672 33.2 68.2032 33.2H74.3472ZM74.0112 35.552H69.2832L69.5712 35.168V40.328L69.3072 40.064H74.0592C74.6352 40.048 75.1392 39.856 75.5712 39.488C76.0192 39.104 76.2432 38.544 76.2432 37.808C76.2432 37.056 76.0432 36.496 75.6432 36.128C75.2432 35.744 74.6992 35.552 74.0112 35.552ZM74.1792 42.416H69.4032L69.5712 42.248V47.912L69.3792 47.696H74.3232C75.1552 47.696 75.8272 47.48 76.3392 47.048C76.8512 46.6 77.1072 45.928 77.1072 45.032C77.1072 44.28 76.9552 43.72 76.6512 43.352C76.3472 42.984 75.9712 42.736 75.5232 42.608C75.0752 42.48 74.6272 42.416 74.1792 42.416Z" fill="white"/>
</g>
<defs>
<clipPath id="clip0_656_569">
<rect width="96" height="96" fill="white"/>
</clipPath>
</defs>
</svg>
