<svg width="477" height="477" viewBox="-70 0 477 477" fill="none" xmlns="http://www.w3.org/2000/svg">
<!-- preserve-colors -->
<path d="M141.352 1.09937C146.68 2.54307 153.901 6.21955 158.98 8.76732C184.118 21.378 206.014 40.2759 219.9 65.0877C238.167 97.7274 239.396 137.311 231.79 173.26C231.315 175.507 229.391 181.911 230.201 183.641C230.549 184.386 232.537 185.286 233.385 185.688C236.219 183.477 238.968 179.265 241.515 176.489C249.643 167.604 259.155 159.72 270.443 155.219C272.988 154.205 276.672 152.579 279.37 152.463C281.09 152.39 282.5 154.19 282.415 155.967C282.16 161.284 281.057 166.539 281.09 171.886C281.152 180.543 282.353 189.317 284.795 197.608C290.21 215.995 300.557 231.823 310 248.251C313.97 255.162 319.097 264.802 321.955 272.127C332.885 300.237 336.297 330.985 331.642 360.722C324.537 406.12 298.71 446.645 260.883 472.592C258.355 474.325 255.308 476.452 253.115 473.215C252.128 471.752 252.855 470.472 253.13 468.87C254.075 465.227 254.91 461.892 255.485 458.135C258.043 440.89 255.575 423.272 248.376 407.395C244.622 398.96 239.491 390.982 235.861 382.352C234.497 379.112 231.894 372.282 230.586 369.452C228.121 364.125 214.508 378.202 212.542 380.102C209.778 382.775 208.08 385.61 204.554 387.89C203.527 387.305 201.565 386.365 201.362 385.152C201.006 383.025 201.348 379.982 201.63 377.842C206.946 337.532 195.103 294.727 163.664 267.637C163.235 267.267 161.927 266.91 161.382 267.152C157.991 268.655 159.709 274.415 159.878 277.207C160.18 282.06 159.972 286.93 159.257 291.737C154.415 325.415 123.352 353.897 103.284 379.365C96.9105 387.452 90.8463 394.95 86.1545 404.27C81.9215 412.815 79.139 422.005 77.921 431.462C76.5422 441.775 76.5973 451.405 78.4853 461.62C79.1303 465.11 80.7083 468.707 80.6178 472.265C80.5175 473.82 78.5788 474.625 77.3428 475.24C73.212 473.587 67.4558 468.925 63.8865 466.142C41.3655 448.515 23.7171 425.427 12.6129 399.072C7.64635 387.487 4.28032 374.632 1.96736 362.255C1.4254 359.352 0.64671 348.445 0 346.837V323.372C0.7848 321.397 0.79333 316.452 1.1507 314.087C2.46502 305.397 3.86067 296.495 6.58717 288.13C7.104 286.545 9.4046 285.49 10.8968 286.362C14.3766 288.4 16.2901 292.915 18.9465 295.907C22.5675 299.862 30.2422 311.19 36.1975 311.735C37.5055 311.855 38.523 309.462 38.3483 307.79C37.3025 297.775 36.558 287.54 36.6457 277.45C36.7722 257.215 40.569 237.17 47.8515 218.291C53.56 203.917 62.8553 188.269 72.2883 176.105C101.644 138.249 139.115 109.37 141.333 57.3407C141.889 45.6832 140.981 34.2332 139.07 22.7376C138.142 17.1577 136.256 11.5386 136.065 5.93582C135.961 2.88307 138.885 1.69016 141.352 1.09937Z" fill="#FB5E1A"/>
</svg>
