<svg fill="#000000" viewBox="0 0 32 32" xmlns="http://www.w3.org/2000/svg"><g id="SVGRepo_bgCarrier" stroke-width="0"></g><g id="SVGRepo_tracerCalcer" stroke-linecap="round" stroke-linejoin="round"></g><g id="SVGRepo_iconCarrier"> <title></title> <g data-name="Layer 28" id="Layer_28"> <rect x="7" y="8" width="18" height="13" fill="#EFEFEF"/> <path d="M28,21H27V7a1,1,0,0,0-1-1H6A1,1,0,0,0,5,7V21H4a1,1,0,0,0-1,1,5,5,0,0,0,5,5H24a5,5,0,0,0,5-5A1,1,0,0,0,28,21ZM7,8H25V21H7ZM24,25H8a3,3,0,0,1-2.83-2H26.83A3,3,0,0,1,24,25Z"></path> <path d="M19,11.79l-4.29,4.3L13,14.29a1,1,0,0,0-1.42,1.42l2.5,2.5a1,1,0,0,0,1.42,0l5-5A1,1,0,0,0,19,11.79Z"></path> </g> </g></svg>
