<?xml version="1.0" encoding="iso-8859-1"?>
<!-- Uploaded to: SVG Repo, www.svgrepo.com, Generator: SVG Repo Mixer Tools -->
<svg height="800px" width="800px" version="1.1" id="Layer_1" xmlns="http://www.w3.org/2000/svg" xmlns:xlink="http://www.w3.org/1999/xlink" 
	 viewBox="0 0 512 512" xml:space="preserve">
<path style="fill:#5A6B96;" d="M500.989,348.464v13.29c0,20.623-16.714,37.337-37.326,37.337H48.337
	c-20.612,0-37.326-16.714-37.326-37.337v-13.29H500.989z"/>
<path style="fill:#EFEFEF;" d="M500.989,51.152v297.312H11.011V51.152c0-20.623,16.714-37.337,37.326-37.337h415.326
	C484.275,13.815,500.989,30.529,500.989,51.152z"/>
<path style="fill:#264087;" d="M333.075,498.184c-51.384,0-102.767,0-154.151,0c12.022-32.827,17.426-66.269,17.734-99.097
	c39.561,0,79.121,0,118.683,0C315.65,431.916,321.054,465.357,333.075,498.184z"/>
<g>
	<path style="fill:#231F20;" d="M463.663,2.804H48.337C21.683,2.804,0,24.493,0,51.152v310.602
		c0,26.659,21.683,48.348,48.337,48.348h136.991c-1.233,26.664-6.005,52.51-14.227,77.072h-33.467
		c-6.08,0-11.011,4.93-11.011,11.011c0,6.081,4.931,11.011,11.011,11.011h236.731c6.08,0,11.011-4.93,11.011-11.011
		c0-6.081-4.931-11.011-11.011-11.011h-33.468c-8.222-24.562-12.993-50.408-14.227-77.072h136.992
		c26.654,0,48.337-21.689,48.337-48.348V51.152C512,24.493,490.317,2.804,463.663,2.804z M22.022,51.152
		c0-14.517,11.806-26.327,26.316-26.327h415.326c14.511,0,26.316,11.81,26.316,26.327v286.302H22.022V51.152z M317.757,487.174
		H194.243c7.592-24.704,11.996-50.528,13.14-77.072h97.233C305.761,436.646,310.165,462.471,317.757,487.174z M489.979,361.754
		c0,14.517-11.806,26.327-26.316,26.327H48.337c-14.511,0-26.316-11.81-26.316-26.327v-2.279h467.957V361.754z"/>
	<path style="fill:#231F20;" d="M456.58,189.546c-6.08,0-11.011,4.93-11.011,11.011v101.666c0,6.081,4.931,11.011,11.011,11.011
		s11.011-4.93,11.011-11.011V200.557C467.59,194.476,462.66,189.546,456.58,189.546z"/>
	<path style="fill:#231F20;" d="M456.58,146.391c-6.08,0-11.011,4.93-11.011,11.011v1.101c0,6.081,4.931,11.011,11.011,11.011
		s11.011-4.93,11.011-11.011v-1.101C467.59,151.321,462.66,146.391,456.58,146.391z"/>
</g>
</svg>