<svg width="102" height="115" viewBox="0 0 102 115" fill="none" xmlns="http://www.w3.org/2000/svg">
<path d="M64.5624 47.5771C65.0753 45.5711 67.9247 45.5711 68.4376 47.5771L68.9555 49.6023C69.1366 50.3104 69.6896 50.8634 70.3977 51.0445L72.4229 51.5624C74.4289 52.0753 74.4289 54.9247 72.4229 55.4376L70.3977 55.9555C69.6896 56.1366 69.1366 56.6896 68.9555 57.3977L68.4376 59.4229C67.9247 61.4289 65.0753 61.4289 64.5624 59.4229L64.0445 57.3977C63.8634 56.6896 63.3104 56.1366 62.6023 55.9555L60.5771 55.4376C58.5711 54.9247 58.5711 52.0753 60.5771 51.5624L62.6023 51.0445C63.3104 50.8634 63.8634 50.3104 64.0445 49.6023L64.5624 47.5771Z" fill="#56565A"/>
<path d="M82.5624 31.5771C83.0753 29.5711 85.9247 29.5711 86.4376 31.5771L87.7701 36.7877C87.9512 37.4958 88.5042 38.0488 89.2123 38.2299L94.4229 39.5624C96.4289 40.0753 96.4289 42.9247 94.4229 43.4376L89.2123 44.7701C88.5042 44.9512 87.9512 45.5042 87.7701 46.2123L86.4376 51.4229C85.9247 53.4289 83.0753 53.4289 82.5624 51.4229L81.2299 46.2123C81.0488 45.5042 80.4958 44.9512 79.7877 44.7701L74.5771 43.4376C72.5711 42.9247 72.5711 40.0753 74.5771 39.5624L79.7877 38.2299C80.4958 38.0488 81.0488 37.4958 81.2299 36.7877L82.5624 31.5771Z" fill="#56565A"/>
<path d="M66.0744 6.85879C66.6207 4.91291 69.3793 4.91291 69.9256 6.85879L72.0805 14.5346C72.269 15.2061 72.7939 15.731 73.4654 15.9195L81.1412 18.0744C83.0871 18.6207 83.0871 21.3793 81.1412 21.9256L73.4654 24.0805C72.7939 24.269 72.269 24.7939 72.0805 25.4654L69.9256 33.1412C69.3793 35.0871 66.6207 35.0871 66.0744 33.1412L63.9195 25.4654C63.731 24.7939 63.2061 24.269 62.5346 24.0805L54.8588 21.9256C52.9129 21.3793 52.9129 18.6207 54.8588 18.0744L62.5346 15.9195C63.2061 15.731 63.731 15.2061 63.9195 14.5346L66.0744 6.85879Z" fill="#56565A"/>
<path d="M50 34H13.5C12.225 34 11.155 34.43 10.291 35.291C9.43002 36.155 9 37.225 9 38.5V101.5C9 102.775 9.43014 103.843 10.291 104.704C11.155 105.568 12.225 106 13.5 106H76.5C77.775 106 78.8431 105.568 79.7041 104.704C80.5681 103.843 81 102.775 81 101.5V61H90V101.5C90 105.25 88.6875 108.438 86.0625 111.062C83.4375 113.687 80.25 115 76.5 115H13.5C9.75 115 6.5625 113.687 3.9375 111.062C1.3125 108.438 0 105.25 0 101.5V38.5C0 34.75 1.3125 31.5625 3.9375 28.9375C6.5625 26.3125 9.75 25 13.5 25H50V34ZM72 97H18L36 79L44.0996 86.9873L54 74.5L72 97ZM27 43C29.475 43 31.5944 43.8825 33.3584 45.6465C35.1193 47.4074 36 49.5251 36 52C36 54.4749 35.1193 56.5926 33.3584 58.3535C31.5944 60.1175 29.475 61 27 61C24.525 61 22.4075 60.1175 20.6465 58.3535C18.8825 56.5925 18 54.475 18 52C18 49.525 18.8825 47.4075 20.6465 45.6465C22.4075 43.8825 24.525 43 27 43Z" fill="#56565A"/>
</svg>
