<svg width="57" height="36" viewBox="0 0 57 36" fill="none" xmlns="http://www.w3.org/2000/svg">
<path d="M5.18182 36C3.75682 36 2.53736 35.4969 1.52345 34.4906C0.507818 33.4826 0 32.2714 0 30.8571V5.14286C0 3.72857 0.507818 2.51829 1.52345 1.512C2.53736 0.504 3.75682 0 5.18182 0H31.0909C32.5159 0 33.7362 0.504 34.7519 1.512C35.7658 2.51829 36.2727 3.72857 36.2727 5.14286V30.8571C36.2727 32.2714 35.7658 33.4826 34.7519 34.4906C33.7362 35.4969 32.5159 36 31.0909 36H5.18182ZM44.0455 15.4286C43.3114 15.4286 42.6965 15.1817 42.2007 14.688C41.7033 14.196 41.4545 13.5857 41.4545 12.8571V2.57143C41.4545 1.84286 41.7033 1.23171 42.2007 0.738C42.6965 0.246 43.3114 0 44.0455 0H54.4091C55.1432 0 55.7581 0.246 56.2538 0.738C56.7513 1.23171 57 1.84286 57 2.57143V12.8571C57 13.5857 56.7513 14.196 56.2538 14.688C55.7581 15.1817 55.1432 15.4286 54.4091 15.4286H44.0455ZM10.3636 25.7143H25.9091C26.4273 25.7143 26.8159 25.4786 27.075 25.0071C27.3341 24.5357 27.2909 24.0857 26.9455 23.6571L22.7352 18.0643C22.4761 17.7214 22.1307 17.55 21.6989 17.55C21.267 17.55 20.9216 17.7214 20.6625 18.0643L16.8409 23.1429L14.3148 19.8C14.0557 19.4571 13.7102 19.2857 13.2784 19.2857C12.8466 19.2857 12.5011 19.4571 12.242 19.8L9.32727 23.6571C8.98182 24.0857 8.93864 24.5357 9.19773 25.0071C9.45682 25.4786 9.84545 25.7143 10.3636 25.7143ZM44.0455 36C43.3114 36 42.6965 35.7531 42.2007 35.2594C41.7033 34.7674 41.4545 34.1571 41.4545 33.4286V23.1429C41.4545 22.4143 41.7033 21.8031 42.2007 21.3094C42.6965 20.8174 43.3114 20.5714 44.0455 20.5714H54.4091C55.1432 20.5714 55.7581 20.8174 56.2538 21.3094C56.7513 21.8031 57 22.4143 57 23.1429V33.4286C57 34.1571 56.7513 34.7674 56.2538 35.2594C55.7581 35.7531 55.1432 36 54.4091 36H44.0455Z" fill="#56565A"/>
</svg>
