<svg width="84" height="82" viewBox="0 0 84 82" fill="none" xmlns="http://www.w3.org/2000/svg">
<path d="M82.4073 18.4159C70.9427 15.2497 68.7443 13.0455 65.5786 1.58312C65.3181 0.64629 64.4667 0 63.495 0C62.5233 0 61.6719 0.651266 61.4114 1.58312C58.246 13.0505 56.0473 15.2494 44.5827 18.4159C43.6461 18.6764 43 19.5281 43 20.5C43 21.4719 43.6511 22.3236 44.5877 22.5841C56.0473 25.7503 58.2507 27.9495 61.4164 39.4169C61.6719 40.3537 62.5283 41 63.5 41C64.4717 41 65.3231 40.3487 65.5836 39.4169C68.749 27.9495 70.9527 25.7506 82.4123 22.5841C83.3489 22.3236 84 21.4719 84 20.5C84 19.5281 83.3539 18.6764 82.4173 18.4159H82.4073Z" fill="#56565A"/>
<path d="M82.4073 18.4159C70.9427 15.2497 68.7443 13.0455 65.5786 1.58312C65.3181 0.64629 64.4667 0 63.495 0C62.5234 0 61.6719 0.651266 61.4114 1.58312C58.246 13.0505 56.0473 15.2494 44.5827 18.4159C43.6461 18.6764 43 19.5281 43 20.5C43 21.4719 43.6511 22.3236 44.5877 22.5841C56.0473 25.7503 58.2507 27.9495 61.4164 39.4169C61.6719 40.3537 62.5283 41 63.5 41C64.4717 41 65.3231 40.3487 65.5836 39.4169C68.749 27.9495 70.9527 25.7506 82.4123 22.5841C83.3489 22.3236 84 21.4719 84 20.5C84 19.5281 83.3539 18.6764 82.4173 18.4159H82.4073Z" fill="#56565A"/>
<path d="M40.5752 15C38.9807 16.331 38 18.3256 38 20.5C38 23.732 40.1622 26.5432 43.248 27.4014L43.2559 27.4033C49.0248 28.9973 51.2301 30.0758 52.5771 31.4229C53.924 32.7697 55.0033 34.9755 56.5967 40.7471C57.458 43.8795 60.3081 46 63.5 46C64.7611 46 65.9576 45.669 67 45.084V72C67 77.5228 62.5228 82 57 82H10C4.47715 82 0 77.5228 0 72V25C0 19.4772 4.47715 15 10 15H40.5752ZM29.46 60.8457C27.5048 60.8457 25.921 62.4465 25.9209 64.4229C25.9209 66.3992 27.5048 68 29.46 68H52.4609C54.4161 68 56 66.3992 56 64.4229C55.9999 62.4465 54.4161 60.8457 52.4609 60.8457H29.46ZM16.1895 41.208C14.8978 39.7282 12.6551 39.5893 11.1953 40.8945C9.73118 42.2002 9.59412 44.4633 10.8857 45.9434L17.6621 53.6914L10.8857 61.4404C9.59407 62.9204 9.73116 65.1827 11.1953 66.4883C11.8676 67.0874 12.7035 67.3828 13.5352 67.3828C14.5171 67.3828 15.4906 66.9761 16.1895 66.1758V66.1797L25.0361 56.0615C26.2172 54.7112 26.2172 52.6765 25.0361 51.3262L16.1895 41.208ZM57 15C62.5228 15 67 19.4772 67 25V34.7871C66.5265 36.1397 66.066 37.6707 65.584 39.417L65.5283 39.5879C65.2168 40.4275 64.4111 41 63.5 41C62.5283 41 61.6715 40.3538 61.416 39.417C58.2503 27.9497 56.0473 25.7502 44.5879 22.584C43.6513 22.3235 43 21.4719 43 20.5C43 19.5281 43.6464 18.6765 44.583 18.416C48.603 17.3057 51.4834 16.3138 53.666 15H57Z" fill="#56565A"/>
</svg>
