<svg width="48" height="48" viewBox="0 0 48 48" fill="none" xmlns="http://www.w3.org/2000/svg">
<g clip-path="url(#clip0_1539_12914)">
<path d="M14 6H8V12H4V2H14V6ZM44 12V2H34V6H40V12H44ZM14 42H8V36H4V46H14V42ZM40 36V42H34V46H44V36H40ZM38 36C38 38.2 36.2 40 34 40H14C11.8 40 10 38.2 10 36V12C10 9.8 11.8 8 14 8H34C36.2 8 38 9.8 38 12V36ZM30 16H18V20H30V16ZM30 22H18V26H30V22ZM30 28H18V32H30V28Z" fill="currentColor"/>
</g>
<defs>
<clipPath id="clip0_1539_12914">
<rect width="48" height="48" fill="white"/>
</clipPath>
</defs>
</svg>
