<svg width="89" height="89" viewBox="0 0 89 89" fill="none" xmlns="http://www.w3.org/2000/svg">
<path d="M85.0852 32.3883C84.6758 32.3883 84.2703 32.469 83.892 32.6256C83.5137 32.7823 83.17 33.012 82.8805 33.3015C82.5909 33.5911 82.3613 33.9348 82.2046 34.3131C82.0479 34.6914 81.9672 35.0968 81.9672 35.5063C81.9672 61.1663 61.1652 81.9683 35.5052 81.9683C34.6781 81.9683 33.8849 82.2969 33.3001 82.8817C32.7153 83.4665 32.3867 84.2597 32.3867 85.0868C32.3867 85.9139 32.7153 86.7071 33.3001 87.2919C33.8849 87.8767 34.6781 88.2053 35.5052 88.2053C64.6102 88.2053 88.2042 64.6113 88.2042 35.5063C88.2042 35.0968 88.1235 34.6912 87.9668 34.3129C87.81 33.9345 87.5803 33.5907 87.2906 33.3012C87.001 33.0116 86.6571 32.782 86.2787 32.6254C85.9003 32.4687 85.4948 32.3882 85.0852 32.3883Z" fill="#005EB8"/>
<path d="M66.2654 52.3722C69.2634 47.4802 72.1634 40.9572 71.5934 31.8262C70.4114 12.9102 53.2794 -1.43875 37.1014 0.115248C30.7684 0.724248 24.2654 5.88625 24.8424 15.1332C25.0934 19.1512 27.0604 21.5232 30.2564 23.3462C33.2994 25.0822 37.2074 26.1812 41.6384 27.4272C46.9904 28.9332 53.1984 30.6232 57.9704 34.1402C63.6894 38.3542 67.5984 43.2413 66.2654 52.3722Z" fill="#003B5C"/>
<path d="M5.39921 19.2953C2.40221 24.1873 -0.497786 30.7103 0.0722139 39.8413C1.25421 58.7573 18.3872 73.1063 34.5642 71.5513C40.8982 70.9423 47.4012 65.7813 46.8232 56.5333C46.5722 52.5153 44.6052 50.1433 41.4092 48.3203C38.3672 46.5853 34.4582 45.4853 30.0272 44.2403C24.6752 42.7343 18.4672 41.0433 13.6952 37.5263C7.97621 33.3123 4.06721 28.4263 5.40121 19.2963" fill="#005EB8"/>
</svg>
