<svg width="30" height="38" viewBox="0 0 30 38" fill="none" xmlns="http://www.w3.org/2000/svg">
<path d="M30 11.75V34.25C30 36.3125 28.3125 38 26.25 38H3.73145C1.66893 38 0 36.3125 0 34.25L0.0185547 4.25C0.0185736 2.18751 1.68751 0.500019 3.75 0.5H18.75L30 11.75ZM10.9131 17.8076C8.86865 17.8076 7.2111 19.4644 7.21094 21.5088V22.5664C7.21094 23.4425 7.92082 24.1531 8.79688 24.1533C9.6731 24.1533 10.3838 23.4426 10.3838 22.5664V21.5088C10.3839 21.2168 10.6211 20.9805 10.9131 20.9805H13.5566V30.5H11.9707C11.0946 30.5 10.3839 31.2098 10.3838 32.0859C10.3838 32.9621 11.0945 33.6729 11.9707 33.6729H18.3164C19.1926 33.6729 19.9033 32.9621 19.9033 32.0859C19.9032 31.2098 19.1925 30.5 18.3164 30.5H16.7305V20.9805H19.374C19.6661 20.9805 19.9032 21.2168 19.9033 21.5088V22.5664C19.9033 23.4425 20.6132 24.1531 21.4893 24.1533C22.3655 24.1533 23.0762 23.4426 23.0762 22.5664V21.5088C23.076 19.4644 21.4185 17.8076 19.374 17.8076H10.9131ZM16.875 13.625H27.1875L16.875 3.3125V13.625Z" fill="#56565A"/>
</svg>
