<svg width="31" height="31" viewBox="0 0 31 31" fill="none" xmlns="http://www.w3.org/2000/svg">
<path d="M3.44444 31C2.49722 31 1.68606 30.663 1.01094 29.9891C0.336981 29.3139 0 28.5028 0 27.5556V3.44444C0 2.49722 0.336981 1.68606 1.01094 1.01094C1.68606 0.336981 2.49722 0 3.44444 0H19.2458C19.7051 0 20.1431 0.0861113 20.5599 0.258334C20.9755 0.430556 21.3412 0.674537 21.6569 0.990278L30.0097 9.34306C30.3255 9.6588 30.5694 10.0245 30.7417 10.4401C30.9139 10.8569 31 11.2949 31 11.7542V27.5556C31 28.5028 30.663 29.3139 29.9891 29.9891C29.3139 30.663 28.5028 31 27.5556 31H3.44444ZM8.61111 24.1111H22.3889C22.8769 24.1111 23.2856 23.9458 23.6151 23.6151C23.9458 23.2856 24.1111 22.8769 24.1111 22.3889C24.1111 21.9009 23.9458 21.4916 23.6151 21.1609C23.2856 20.8314 22.8769 20.6667 22.3889 20.6667H8.61111C8.12315 20.6667 7.71383 20.8314 7.38317 21.1609C7.05365 21.4916 6.88889 21.9009 6.88889 22.3889C6.88889 22.8769 7.05365 23.2856 7.38317 23.6151C7.71383 23.9458 8.12315 24.1111 8.61111 24.1111ZM8.61111 17.2222H22.3889C22.8769 17.2222 23.2856 17.0569 23.6151 16.7262C23.9458 16.3967 24.1111 15.988 24.1111 15.5C24.1111 15.012 23.9458 14.6027 23.6151 14.2721C23.2856 13.9425 22.8769 13.7778 22.3889 13.7778H8.61111C8.12315 13.7778 7.71383 13.9425 7.38317 14.2721C7.05365 14.6027 6.88889 15.012 6.88889 15.5C6.88889 15.988 7.05365 16.3967 7.38317 16.7262C7.71383 17.0569 8.12315 17.2222 8.61111 17.2222ZM8.61111 10.3333H17.2222C17.7102 10.3333 18.1195 10.168 18.4502 9.83733C18.7797 9.50781 18.9444 9.09907 18.9444 8.61111C18.9444 8.12315 18.7797 7.71383 18.4502 7.38317C18.1195 7.05365 17.7102 6.88889 17.2222 6.88889H8.61111C8.12315 6.88889 7.71383 7.05365 7.38317 7.38317C7.05365 7.71383 6.88889 8.12315 6.88889 8.61111C6.88889 9.09907 7.05365 9.50781 7.38317 9.83733C7.71383 10.168 8.12315 10.3333 8.61111 10.3333Z" fill="#56565A"/>
</svg>
