<svg viewBox="0 0 140 140" fill="none" xmlns="http://www.w3.org/2000/svg"><title>xTrace</title><path d="M93.3332 93.3335L46.6666 93.3335L46.6665 46.6669L93.3331 46.6669L93.3332 93.3335Z" fill="url(#paint0_linear_132_16__r_0_)"></path><path fill-rule="evenodd" clip-rule="evenodd" d="M4.088e-06 116.761C4.64901e-06 129.596 10.4044 140 23.2388 140H93.3332H116.761C129.596 140 140 129.596 140 116.761V23.2387C140 10.4043 129.596 -5.6101e-07 116.761 0L23.2387 4.088e-06C10.4043 4.64901e-06 -5.61009e-07 10.4043 0 23.2387L1.02408e-06 46.6669L4.088e-06 116.761ZM1.02408e-06 46.6669L46.6665 46.6669V0.000399792C52.7948 0.000399525 58.8632 1.20748 64.525 3.55269C70.1869 5.89791 75.3314 9.33534 79.6648 13.6687C83.9982 18.0022 87.4356 23.1466 89.7809 28.8085C92.126 34.4703 93.3331 40.5386 93.3331 46.6669C99.4614 46.6669 105.53 47.8739 111.192 50.2191C116.853 52.5644 121.998 56.0018 126.331 60.3352C130.665 64.6686 134.102 69.8131 136.447 75.475C138.793 81.1368 140 87.2052 140 93.3335L93.3332 93.3335L93.3332 140C87.2049 140 81.1365 138.793 75.4747 136.448C69.8128 134.102 64.6683 130.665 60.3349 126.332C56.0015 121.998 52.5641 116.854 50.2189 111.192C47.8737 105.53 46.6666 99.4618 46.6666 93.3335C40.5382 93.3335 34.4699 92.1265 28.8081 89.7812C23.1462 87.436 18.0017 83.9986 13.6683 79.6652C9.33495 75.3318 5.89751 70.1873 3.55229 64.5254C1.20707 58.8636 1.29196e-06 52.7952 1.02408e-06 46.6669Z" fill="url(#paint0_linear_132_16__r_0_)"></path><defs><linearGradient id="paint0_linear_132_16__r_0_" x1="0" y1="0" x2="140" y2="140" gradientUnits="userSpaceOnUse"><stop offset="0%" stop-color="#7B90FC" stop-opacity="0.988235"><animate attributeName="stop-color" values="#7B90FC; #A852FF; #7B90FC;" dur="10s" repeatCount="indefinite"></animate></stop><stop offset="100%" stop-color="#A852FF"><animate attributeName="stop-color" values="#A852FF; #7B90FC; #A852FF;" dur="10s" repeatCount="indefinite"></animate></stop></linearGradient></defs></svg>
