<svg width="48" height="48" viewBox="0 0 48 48" fill="none" xmlns="http://www.w3.org/2000/svg">
<path d="M10 42C8.9 42 7.95833 41.6083 7.175 40.825C6.39167 40.0417 6 39.1 6 38V32C6 31.4333 6.19167 30.9583 6.575 30.575C6.95833 30.1917 7.43333 30 8 30C8.56667 30 9.04167 30.1917 9.425 30.575C9.80833 30.9583 10 31.4333 10 32V38H16C16.5667 38 17.0417 38.1917 17.425 38.575C17.8083 38.9583 18 39.4333 18 40C18 40.5667 17.8083 41.0417 17.425 41.425C17.0417 41.8083 16.5667 42 16 42H10ZM38 42H32C31.4333 42 30.9583 41.8083 30.575 41.425C30.1917 41.0417 30 40.5667 30 40C30 39.4333 30.1917 38.9583 30.575 38.575C30.9583 38.1917 31.4333 38 32 38H38V32C38 31.4333 38.1917 30.9583 38.575 30.575C38.9583 30.1917 39.4333 30 40 30C40.5667 30 41.0417 30.1917 41.425 30.575C41.8083 30.9583 42 31.4333 42 32V38C42 39.1 41.6083 40.0417 40.825 40.825C40.0417 41.6083 39.1 42 38 42ZM6 10C6 8.9 6.39167 7.95833 7.175 7.175C7.95833 6.39167 8.9 6 10 6H16C16.5667 6 17.0417 6.19167 17.425 6.575C17.8083 6.95833 18 7.43333 18 8C18 8.56667 17.8083 9.04167 17.425 9.425C17.0417 9.80833 16.5667 10 16 10H10V16C10 16.5667 9.80833 17.0417 9.425 17.425C9.04167 17.8083 8.56667 18 8 18C7.43333 18 6.95833 17.8083 6.575 17.425C6.19167 17.0417 6 16.5667 6 16V10ZM42 10V16C42 16.5667 41.8083 17.0417 41.425 17.425C41.0417 17.8083 40.5667 18 40 18C39.4333 18 38.9583 17.8083 38.575 17.425C38.1917 17.0417 38 16.5667 38 16V10H32C31.4333 10 30.9583 9.80833 30.575 9.425C30.1917 9.04167 30 8.56667 30 8C30 7.43333 30.1917 6.95833 30.575 6.575C30.9583 6.19167 31.4333 6 32 6H38C39.1 6 40.0417 6.39167 40.825 7.175C41.6083 7.95833 42 8.9 42 10ZM24 36C24.7 36 25.2917 35.7583 25.775 35.275C26.2583 34.7917 26.5 34.2 26.5 33.5C26.5 32.8 26.2583 32.2083 25.775 31.725C25.2917 31.2417 24.7 31 24 31C23.3 31 22.7083 31.2417 22.225 31.725C21.7417 32.2083 21.5 32.8 21.5 33.5C21.5 34.2 21.7417 34.7917 22.225 35.275C22.7083 35.7583 23.3 36 24 36ZM24 15.4C24.8667 15.4 25.625 15.6667 26.275 16.2C26.925 16.7333 27.25 17.4167 27.25 18.25C27.25 19.0167 27.0083 19.7 26.525 20.3C26.0417 20.9 25.5167 21.45 24.95 21.95C24.0833 22.7167 23.425 23.4417 22.975 24.125C22.525 24.8083 22.2667 25.6333 22.2 26.6C22.1667 27.0667 22.3333 27.475 22.7 27.825C23.0667 28.175 23.5 28.35 24 28.35C24.4667 28.35 24.8917 28.1833 25.275 27.85C25.6583 27.5167 25.8833 27.1 25.95 26.6C26.0167 26.0333 26.2167 25.5333 26.55 25.1C26.8833 24.6667 27.3667 24.1333 28 23.5C29.1667 22.3333 29.9417 21.3917 30.325 20.675C30.7083 19.9583 30.9 19.1 30.9 18.1C30.9 16.3 30.25 14.8333 28.95 13.7C27.65 12.5667 26 12 24 12C22.6333 12 21.4083 12.3083 20.325 12.925C19.2417 13.5417 18.4167 14.4167 17.85 15.55C17.65 15.95 17.6417 16.3583 17.825 16.775C18.0083 17.1917 18.3167 17.4833 18.75 17.65C19.1833 17.8167 19.625 17.8167 20.075 17.65C20.525 17.4833 20.8833 17.2167 21.15 16.85C21.5167 16.3833 21.9417 16.025 22.425 15.775C22.9083 15.525 23.4333 15.4 24 15.4Z" fill="#56565A"/>
</svg>
