<svg width="49" height="31" viewBox="0 0 49 31" fill="none" xmlns="http://www.w3.org/2000/svg">
<path d="M45.3037 0C47.3377 0 49.002 1.66424 49.002 3.69824V25.8877C49.0017 27.9215 47.3376 29.585 45.3037 29.585H15.7188C15.4291 29.585 15.1469 29.5501 14.876 29.4863C16.0929 28.0562 16.9001 26.262 17.1172 24.293L17.1279 24.1914V23.585L17.2051 7.01172H24.041V0H45.3037ZM22.1914 5.16309H15.3643L15.2793 23.5762V24.0898C15.0878 25.8272 14.3309 27.3905 13.2002 28.5869H13.1992C14.3302 27.3904 15.0867 25.8273 15.2783 24.0898V23.5762L15.3633 5.16211H22.1914V5.16309ZM25.8887 23.1133L38.832 14.793L25.8887 6.47168V23.1133Z" fill="#56565A"/>
<path d="M10.2411 0V15.9679C9.43889 15.6754 8.58546 15.4861 7.68083 15.4861C3.43077 15.4861 0 18.9447 0 23.2292C0 27.5137 3.43077 30.9722 7.68083 30.9722C11.6237 30.9722 14.8496 27.961 15.2763 24.0895V23.5759L15.3617 5.16204H22.1891V0H10.2411Z" fill="#56565A"/>
</svg>
